<svg width="89" height="88" viewBox="0 0 89 88" fill="none" xmlns="http://www.w3.org/2000/svg">
<rect x="2" y="1.5" width="85" height="85" rx="42.5" fill="#2A4B7C"/>
<rect x="2" y="1.5" width="85" height="85" rx="42.5" stroke="#E6A71F" stroke-width="3"/>
<path d="M65.7784 26.575L48.9484 16.8567C46.2001 15.27 42.8001 15.27 40.0234 16.8567L23.2218 26.575C20.4734 28.1617 18.7734 31.1084 18.7734 34.31V53.69C18.7734 56.8634 20.4734 59.81 23.2218 61.425L40.0518 71.1434C42.8001 72.73 46.2001 72.73 48.9768 71.1434L65.8068 61.425C68.5551 59.8384 70.2551 56.8917 70.2551 53.69V34.31C70.2268 31.1084 68.5268 28.19 65.7784 26.575ZM44.5001 30.7967C48.1551 30.7967 51.1018 33.7434 51.1018 37.3984C51.1018 41.0534 48.1551 44 44.5001 44C40.8451 44 37.8984 41.0534 37.8984 37.3984C37.8984 33.7717 40.8451 30.7967 44.5001 30.7967ZM52.0934 57.2034H36.9068C34.6118 57.2034 33.2801 54.6534 34.5551 52.755C36.4818 49.8934 40.2218 47.9667 44.5001 47.9667C48.7784 47.9667 52.5184 49.8934 54.4451 52.755C55.7201 54.625 54.3601 57.2034 52.0934 57.2034Z" fill="#E6A71F"/>
</svg>
