<svg width="88" height="88" viewBox="0 0 88 88" fill="none" xmlns="http://www.w3.org/2000/svg">
<rect x="1.5" y="1.5" width="85" height="85" rx="42.5" fill="#2A4B7C"/>
<rect x="1.5" y="1.5" width="85" height="85" rx="42.5" stroke="#E6A71F" stroke-width="3"/>
<path d="M59.7527 15.6667H28.161C21.276 15.6667 15.666 21.2767 15.666 28.1617V46.5783V47.145C15.666 54.0583 21.276 59.64 28.161 59.64H39.041C40.5993 59.64 41.8743 60.915 41.8743 62.4733V65.2217C41.8743 66.78 40.5993 68.055 39.041 68.055H32.1843C31.0227 68.055 30.0593 69.0183 30.0593 70.18C30.0593 71.3417 30.9943 72.3333 32.1843 72.3333H55.8427C57.0043 72.3333 57.9677 71.37 57.9677 70.2083C57.9677 69.0467 57.0043 68.0833 55.8427 68.0833H48.986C47.4277 68.0833 46.1527 66.8083 46.1527 65.25V62.5017C46.1527 60.9433 47.4277 59.6683 48.986 59.6683H59.781C66.6943 59.6683 72.276 54.0583 72.276 47.1733V46.6067V28.19C72.2477 21.2767 66.6377 15.6667 59.7527 15.6667Z" fill="#E6A71F"/>
</svg>
