<svg width="88" height="88" viewBox="0 0 88 88" fill="none" xmlns="http://www.w3.org/2000/svg">
<rect x="1.5" y="1.5" width="85" height="85" rx="42.5" fill="#2A4B7C"/>
<rect x="1.5" y="1.5" width="85" height="85" rx="42.5" stroke="#E6A71F" stroke-width="3"/>
<path d="M53.1227 28.5587H26.376C25.5827 28.5587 24.846 28.587 24.166 28.6154C17.451 29.012 15.666 31.477 15.666 39.127V40.7704C15.666 42.3287 16.941 43.6037 18.4993 43.6037H60.9994C62.5577 43.6037 63.8327 42.3287 63.8327 40.7704V39.127C63.8327 30.6837 61.6794 28.5587 53.1227 28.5587Z" fill="#E6A71F"/>
<path d="M18.4993 47.8534C16.941 47.8534 15.666 49.1284 15.666 50.6867V58.9317C15.666 67.3751 17.8193 69.5001 26.376 69.5001H53.1227C61.5377 69.5001 63.7477 67.4601 63.8327 59.3851V50.6867C63.8327 49.1284 62.5577 47.8534 60.9994 47.8534H18.4993ZM29.7193 62.5867H24.8743C23.7127 62.5867 22.7493 61.6234 22.7493 60.4617C22.7493 59.3001 23.7127 58.3367 24.8743 58.3367H29.7477C30.9093 58.3367 31.8727 59.3001 31.8727 60.4617C31.8727 61.6234 30.9093 62.5867 29.7193 62.5867ZM45.5577 62.5867H35.811C34.6493 62.5867 33.686 61.6234 33.686 60.4617C33.686 59.3001 34.6493 58.3367 35.811 58.3367H45.5577C46.7194 58.3367 47.6827 59.3001 47.6827 60.4617C47.6827 61.6234 46.7477 62.5867 45.5577 62.5867Z" fill="#E6A71F"/>
<path d="M72.3326 47.7686V32.9219C72.3326 24.0536 67.2609 20.2003 59.6109 20.2003H34.3092C32.1559 20.2003 30.2292 20.5119 28.5292 21.1636C27.1976 21.6453 26.0076 22.3536 25.0442 23.2886C24.5342 23.7703 24.9309 24.5636 25.6676 24.5636H56.4659C62.8409 24.5636 67.9976 29.7203 67.9976 36.0953V56.4102C67.9976 57.1186 68.7626 57.5153 69.2726 57.0053C71.2276 54.9369 72.3326 51.9053 72.3326 47.7686Z" fill="#E6A71F"/>
</svg>
