<svg width="88" height="88" viewBox="0 0 88 88" fill="none" xmlns="http://www.w3.org/2000/svg">
<rect x="1.5" y="1.5" width="85" height="85" rx="42.5" fill="#2A4B7C"/>
<rect x="1.5" y="1.5" width="85" height="85" rx="42.5" stroke="#E6A71F" stroke-width="3"/>
<path d="M31.673 69.2452C31.588 69.2452 31.4746 69.3019 31.3896 69.3019C25.893 66.5819 21.4163 62.0769 18.668 56.5802C18.668 56.4952 18.7246 56.3819 18.7246 56.2969C22.1813 57.3169 25.7513 58.0819 29.293 58.6769C29.9163 62.2469 30.653 65.7886 31.673 69.2452Z" fill="#E6A71F"/>
<path d="M69.3293 56.6086C66.5243 62.2469 61.8493 66.8086 56.1543 69.5569C57.231 65.9586 58.1376 62.3319 58.7326 58.6769C62.3026 58.0819 65.816 57.3169 69.2726 56.2969C69.2443 56.4102 69.3293 56.5236 69.3293 56.6086Z" fill="#E6A71F"/>
<path d="M69.556 31.8449C65.986 30.7683 62.3876 29.8899 58.7326 29.2666C58.1376 25.6116 57.2593 21.9849 56.1543 18.4433C62.0193 21.2483 66.751 25.9799 69.556 31.8449Z" fill="#E6A71F"/>
<path d="M31.677 18.7552C30.657 22.2118 29.9203 25.7252 29.3253 29.2952C25.6703 29.8618 22.0436 30.7685 18.4453 31.8452C21.1936 26.1502 25.7553 21.4752 31.3936 18.6702C31.4786 18.6702 31.592 18.7552 31.677 18.7552Z" fill="#E6A71F"/>
<path d="M53.888 28.6717C47.3147 27.935 40.6847 27.935 34.1113 28.6717C34.8197 24.79 35.7263 20.9083 37.0013 17.1683C37.058 16.9417 37.0297 16.7717 37.058 16.545C39.2963 16.0067 41.5913 15.6667 43.9997 15.6667C46.3797 15.6667 48.703 16.0067 50.913 16.545C50.9413 16.7717 50.9413 16.9417 50.998 17.1683C52.273 20.9367 53.1797 24.79 53.888 28.6717Z" fill="#E6A71F"/>
<path d="M28.671 53.8884C24.761 53.18 20.9077 52.2734 17.1677 50.9984C16.941 50.9417 16.771 50.97 16.5443 50.9417C16.006 48.7034 15.666 46.4084 15.666 44C15.666 41.62 16.006 39.2967 16.5443 37.0867C16.771 37.0584 16.941 37.0584 17.1677 37.0017C20.936 35.755 24.761 34.82 28.671 34.1117C27.9627 40.685 27.9627 47.315 28.671 53.8884Z" fill="#E6A71F"/>
<path d="M72.3331 44C72.3331 46.4084 71.9931 48.7034 71.4548 50.9417C71.2281 50.97 71.0581 50.9417 70.8315 50.9984C67.0631 52.245 63.2098 53.18 59.3281 53.8884C60.0648 47.315 60.0648 40.685 59.3281 34.1117C63.2098 34.82 67.0915 35.7267 70.8315 37.0017C71.0581 37.0584 71.2281 37.0867 71.4548 37.0867C71.9931 39.325 72.3331 41.62 72.3331 44Z" fill="#E6A71F"/>
<path d="M53.888 59.3281C53.1797 63.2381 52.273 67.0914 50.998 70.8314C50.9413 71.0581 50.9413 71.2281 50.913 71.4548C48.703 71.9931 46.3797 72.3331 43.9997 72.3331C41.5913 72.3331 39.2963 71.9931 37.058 71.4548C37.0297 71.2281 37.058 71.0581 37.0013 70.8314C35.7547 67.0631 34.8197 63.2381 34.1113 59.3281C37.398 59.6964 40.6847 59.9514 43.9997 59.9514C47.3147 59.9514 50.6297 59.6964 53.888 59.3281Z" fill="#E6A71F"/>
<path d="M54.6621 54.6628C47.5757 55.5568 40.423 55.5568 33.3366 54.6628C32.4425 47.5763 32.4425 40.4237 33.3366 33.3372C40.423 32.4431 47.5757 32.4431 54.6621 33.3372C55.5562 40.4237 55.5562 47.5763 54.6621 54.6628Z" fill="#E6A71F"/>
</svg>
