<svg width="88" height="88" viewBox="0 0 88 88" fill="none" xmlns="http://www.w3.org/2000/svg">
<rect x="1.5" y="1.5" width="85" height="85" rx="42.5" fill="#2A4B7C"/>
<rect x="1.5" y="1.5" width="85" height="85" rx="42.5" stroke="#E6A71F" stroke-width="3"/>
<path d="M60.4624 25.555V27.6517L50.4324 21.8434C46.6357 19.6617 41.3374 19.6617 37.5691 21.8434L27.5391 27.68V25.555C27.5391 19.18 31.0241 15.6667 37.3991 15.6667H50.6024C56.9774 15.6667 60.4624 19.18 60.4624 25.555Z" fill="#E6A71F"/>
<path d="M60.546 32.5817L60.1493 32.3834L56.296 30.1734L48.306 25.5551C45.8694 24.1384 42.1293 24.1384 39.6927 25.5551L31.7027 30.1451L27.8493 32.4117L27.3393 32.6667C22.381 36.0101 22.041 36.6334 22.041 41.9884V54.7951C22.041 60.1501 22.381 60.7734 27.4527 64.2017L39.6927 71.2567C40.911 71.9934 42.441 72.3051 43.9993 72.3051C45.5293 72.3051 47.0877 71.9651 48.306 71.2567L60.6593 64.1167C65.646 60.7734 65.9577 60.1784 65.9577 54.7951V41.9884C65.9577 36.6334 65.6177 36.0101 60.546 32.5817ZM51.9043 48.2501L50.176 50.3751C49.8927 50.6867 49.6943 51.2817 49.7227 51.7067L49.8927 54.4267C50.006 56.0984 48.816 56.9484 47.2577 56.3534L44.736 55.3334C44.3393 55.1917 43.6877 55.1917 43.291 55.3334L40.7693 56.3251C39.211 56.9484 38.021 56.0701 38.1343 54.3984L38.3043 51.6784C38.3327 51.2534 38.1343 50.6584 37.851 50.3467L36.0943 48.2501C35.0177 46.9751 35.4993 45.5584 37.1143 45.1334L39.7493 44.4534C40.1743 44.3401 40.656 43.9434 40.8827 43.6034L42.356 41.3367C43.2627 39.9201 44.7077 39.9201 45.6427 41.3367L47.116 43.6034C47.3427 43.9717 47.8527 44.3401 48.2493 44.4534L50.8843 45.1334C52.4993 45.5584 52.981 46.9751 51.9043 48.2501Z" fill="#E6A71F"/>
</svg>
