<svg width="88" height="88" viewBox="0 0 88 88" fill="none" xmlns="http://www.w3.org/2000/svg">
<rect x="1.5" y="1.5" width="85" height="85" rx="42.5" fill="#2A4B7C"/>
<rect x="1.5" y="1.5" width="85" height="85" rx="42.5" stroke="#E6A71F" stroke-width="3"/>
<path d="M46.8942 66.7716C47.3658 66.8813 47.4136 67.5108 46.9575 67.6733C46.6504 67.7827 46.3351 67.8905 46.0117 67.9984L41.535 69.4717C30.2867 73.0984 24.365 70.0667 20.71 58.8184L17.0833 47.6267C13.4567 36.3784 16.46 30.4284 27.7083 26.8017L31.0557 25.6932C31.4585 25.5597 31.8395 25.9594 31.7013 26.3606C31.3193 27.4691 30.9789 28.6928 30.655 30.0317L27.8783 41.9034C24.7617 55.2484 29.3233 62.615 42.6683 65.7884L46.8942 66.7716Z" fill="#E6A71F"/>
<path d="M58.6482 19.095L53.9165 17.99C44.4532 15.7517 38.8149 17.5933 35.4999 24.45C34.6499 26.1783 33.9699 28.275 33.4032 30.6833L30.6265 42.555C27.8499 54.3983 31.5049 60.235 43.3199 63.04L48.0799 64.1733C49.7232 64.57 51.2532 64.825 52.6699 64.9383C61.5099 65.7883 66.2132 61.6517 68.5932 51.4233L71.3699 39.58C74.1465 27.7367 70.5199 21.8717 58.6482 19.095ZM53.3215 47.7683C53.0665 48.7317 52.2165 49.355 51.2532 49.355C51.0832 49.355 50.9132 49.3267 50.7149 49.2983L42.4699 47.2017C41.3365 46.9183 40.6565 45.7567 40.9399 44.6233C41.2232 43.49 42.3849 42.81 43.5182 43.0933L51.7632 45.19C52.9249 45.4733 53.6049 46.635 53.3215 47.7683ZM61.6232 38.1917C61.3682 39.155 60.5182 39.7783 59.5549 39.7783C59.3849 39.7783 59.2149 39.75 59.0165 39.7217L45.2749 36.2367C44.1415 35.9533 43.4615 34.7917 43.7449 33.6583C44.0282 32.525 45.1899 31.845 46.3232 32.1283L60.0649 35.6133C61.2265 35.8683 61.9065 37.03 61.6232 38.1917Z" fill="#E6A71F"/>
</svg>
