<svg width="88" height="88" viewBox="0 0 88 88" fill="none" xmlns="http://www.w3.org/2000/svg">
<rect x="1.5" y="1.5" width="85" height="85" rx="42.5" fill="#2A4B7C"/>
<rect x="1.5" y="1.5" width="85" height="85" rx="42.5" stroke="#E6A71F" stroke-width="3"/>
<path d="M68.0827 55.3333V62.4167C68.0827 67.885 63.6343 72.3333 58.166 72.3333H29.8327C24.3643 72.3333 19.916 67.885 19.916 62.4167V60.575C19.916 56.1267 23.5427 52.5 27.991 52.5H65.2493C66.8077 52.5 68.0827 53.775 68.0827 55.3333Z" fill="#E6A71F"/>
<path d="M53.916 15.6667H34.0827C22.7493 15.6667 19.916 18.5 19.916 29.8334V51.31C22.0693 49.4117 24.9027 48.25 27.991 48.25H65.2493C66.8077 48.25 68.0827 46.975 68.0827 45.4167V29.8334C68.0827 18.5 65.2493 15.6667 53.916 15.6667ZM46.8327 40.4584H32.666C31.5043 40.4584 30.541 39.495 30.541 38.3334C30.541 37.1717 31.5043 36.2084 32.666 36.2084H46.8327C47.9943 36.2084 48.9577 37.1717 48.9577 38.3334C48.9577 39.495 47.9943 40.4584 46.8327 40.4584ZM55.3327 30.5417H32.666C31.5043 30.5417 30.541 29.5784 30.541 28.4167C30.541 27.255 31.5043 26.2917 32.666 26.2917H55.3327C56.4943 26.2917 57.4577 27.255 57.4577 28.4167C57.4577 29.5784 56.4943 30.5417 55.3327 30.5417Z" fill="#E6A71F"/>
</svg>
