<svg width="88" height="88" viewBox="0 0 88 88" fill="none" xmlns="http://www.w3.org/2000/svg">
<rect x="1.5" y="1.5" width="85" height="85" rx="42.5" fill="#2A4B7C"/>
<rect x="1.5" y="1.5" width="85" height="85" rx="42.5" stroke="#E6A71F" stroke-width="3"/>
<path d="M70.21 62.332L65.535 63.437C64.4867 63.692 63.665 64.4854 63.4383 65.5337L62.4467 69.6987C61.9083 71.9654 59.0183 72.6737 57.5167 70.8887L49.045 61.142C48.365 60.3487 48.7333 59.102 49.7533 58.847C54.7683 57.6287 59.2733 54.8237 62.5883 50.8287C63.1267 50.177 64.09 50.092 64.685 50.687L70.975 56.977C73.1283 59.1304 72.3633 61.822 70.21 62.332Z" fill="#E6A71F"/>
<path d="M17.6509 62.332L22.3259 63.437C23.3743 63.692 24.1959 64.4854 24.4226 65.5337L25.4143 69.6987C25.9526 71.9654 28.8426 72.6737 30.3443 70.8887L38.816 61.142C39.496 60.3487 39.1276 59.102 38.1076 58.847C33.0926 57.6287 28.5876 54.8237 25.2726 50.8287C24.7343 50.177 23.7709 50.092 23.1759 50.687L16.8859 56.977C14.7326 59.1304 15.4976 61.822 17.6509 62.332Z" fill="#E6A71F"/>
<path d="M43.9993 15.6666C33.0343 15.6666 24.166 24.535 24.166 35.5C24.166 39.6083 25.3843 43.3766 27.481 46.5216C30.541 51.055 35.386 54.2566 41.0243 55.0783C41.9877 55.2483 42.9793 55.3333 43.9993 55.3333C45.0194 55.3333 46.011 55.2483 46.9743 55.0783C52.6127 54.2566 57.4577 51.055 60.5177 46.5216C62.6143 43.3766 63.8327 39.6083 63.8327 35.5C63.8327 24.535 54.9643 15.6666 43.9993 15.6666ZM52.6694 34.8766L50.3177 37.2283C49.921 37.625 49.6944 38.39 49.836 38.9566L50.516 41.875C51.0544 44.17 49.836 45.0766 47.796 43.8583L44.9627 42.1866C44.4527 41.875 43.6027 41.875 43.0927 42.1866L40.2593 43.8583C38.2194 45.0483 37.001 44.17 37.5394 41.875L38.2193 38.9566C38.3327 38.4183 38.1343 37.625 37.7377 37.2283L35.3293 34.8766C33.941 33.4883 34.3943 32.1 36.321 31.7883L39.3527 31.2783C39.8627 31.1933 40.4577 30.74 40.6843 30.2866L42.356 26.9433C43.2627 25.13 44.736 25.13 45.6427 26.9433L47.3144 30.2866C47.541 30.74 48.136 31.1933 48.6743 31.2783L51.706 31.7883C53.6044 32.1 54.0577 33.4883 52.6694 34.8766Z" fill="#E6A71F"/>
</svg>
