<svg width="88" height="88" viewBox="0 0 88 88" fill="none" xmlns="http://www.w3.org/2000/svg">
<rect x="1.5" y="1.5" width="85" height="85" rx="42.5" fill="#2A4B7C"/>
<rect x="1.5" y="1.5" width="85" height="85" rx="42.5" stroke="#E6A71F" stroke-width="3"/>
<path d="M41.5355 54.9933C40.8271 54.9933 40.1188 54.625 39.7221 53.9733C39.1271 52.9816 39.4388 51.65 40.4588 51.055L42.9805 49.5533V46.4933C42.9805 45.3316 43.9438 44.3683 45.1055 44.3683C46.2671 44.3683 47.2305 45.3316 47.2305 46.4933V50.7433C47.2305 51.48 46.8338 52.1883 46.2105 52.5566L42.6688 54.6816C42.2721 54.88 41.9038 54.9933 41.5355 54.9933Z" fill="#E6A71F"/>
<path d="M69.7559 29.7767C67.3476 27.1133 63.3526 25.7817 57.4876 25.7817H56.8076V25.6683C56.8076 20.9083 56.8076 15.015 46.1543 15.015H41.8476C31.1943 15.015 31.1943 20.9083 31.1943 25.6683V25.7817H30.5143C24.6493 25.7817 20.6259 27.1133 18.2459 29.7767C15.4409 32.9217 15.5259 37.0867 15.8093 39.9483L15.8376 40.1467L16.0717 42.8777C16.0849 43.0316 16.1684 43.1708 16.2981 43.2548C17.2075 43.8443 18.2045 44.4933 19.1526 45.02C19.5493 45.275 19.9743 45.5017 20.3993 45.7283C23.6009 47.485 27.0293 48.8734 30.5426 49.8367C30.6276 57.175 36.6343 63.125 44.0009 63.125C51.4243 63.125 57.4593 57.09 57.4593 49.6667V49.5534C61.0293 48.4767 64.4576 46.975 67.6593 45.105C67.8293 45.02 67.9426 44.935 68.0843 44.85C69.3218 44.1775 70.6103 43.275 71.756 42.458C71.8717 42.3755 71.9466 42.2477 71.9622 42.1065L72.0509 41.3084L72.1926 39.9767C72.2209 39.8067 72.2209 39.665 72.2493 39.4667C72.4759 36.6333 72.4193 32.7233 69.7559 29.7767ZM35.2459 25.6683C35.2459 20.8517 35.2459 19.0383 41.8476 19.0383H46.1543C52.7559 19.0383 52.7559 20.8517 52.7559 25.6683V25.7817H35.2459V25.6683ZM44.0009 58.875C39.3259 58.875 35.4443 55.3617 34.8776 50.8284C34.8209 50.46 34.7926 50.0633 34.7926 49.6667C34.7926 44.595 38.9293 40.4583 44.0009 40.4583C49.0726 40.4583 53.2093 44.595 53.2093 49.6667C53.2093 50.0067 53.1809 50.3183 53.1526 50.63V50.6583C52.6426 55.2767 48.7326 58.875 44.0009 58.875Z" fill="#E6A71F"/>
<path d="M70.443 48.4178C70.8049 48.2042 71.2845 48.5052 71.2462 48.9237L70.1515 60.8867C69.5565 66.5534 67.2332 72.3334 54.7665 72.3334H33.1765C20.7099 72.3334 18.3865 66.5534 17.8199 60.915L16.7485 49.4435C16.7107 49.0387 17.1465 48.7597 17.4997 48.9611C17.819 49.1433 18.1545 49.3322 18.3582 49.44C20.5682 50.6584 22.8632 51.735 25.2149 52.585C26.0932 52.8967 26.7165 53.6334 26.9715 54.54C29.0965 61.9067 35.9532 67.375 43.9999 67.375C52.1882 67.375 59.1015 61.7934 61.1132 54.1434C61.3399 53.2367 61.9632 52.5 62.8415 52.16C65.2215 51.225 67.4882 50.12 69.6132 48.9017C69.73 48.8368 70.0847 48.6292 70.443 48.4178Z" fill="#E6A71F"/>
</svg>
