<svg width="88" height="88" viewBox="0 0 88 88" fill="none" xmlns="http://www.w3.org/2000/svg">
<rect x="1.5" y="1.5" width="85" height="85" rx="42.5" fill="#2A4B7C"/>
<rect x="1.5" y="1.5" width="85" height="85" rx="42.5" stroke="#E6A71F" stroke-width="3"/>
<path d="M65.2784 26.575L48.4484 16.8566C45.7001 15.27 42.3001 15.27 39.5234 16.8566L22.7218 26.575C19.9734 28.1616 18.2734 31.1083 18.2734 34.31V53.69C18.2734 56.8633 19.9734 59.81 22.7218 61.425L39.5518 71.1433C42.3001 72.73 45.7001 72.73 48.4768 71.1433L65.3068 61.425C68.0551 59.8383 69.7551 56.8916 69.7551 53.69V34.31C69.7268 31.1083 68.0268 28.19 65.2784 26.575ZM41.8751 31.9583C41.8751 30.7966 42.8384 29.8333 44.0001 29.8333C45.1618 29.8333 46.1251 30.7966 46.1251 31.9583V46.8333C46.1251 47.995 45.1618 48.9583 44.0001 48.9583C42.8384 48.9583 41.8751 47.995 41.8751 46.8333V31.9583ZM46.6068 57.1183C46.4651 57.4583 46.2668 57.77 46.0118 58.0533C45.4734 58.5916 44.7651 58.875 44.0001 58.875C43.6318 58.875 43.2634 58.79 42.9234 58.6483C42.5551 58.5066 42.2718 58.3083 41.9884 58.0533C41.7334 57.77 41.5351 57.4583 41.3651 57.1183C41.2234 56.7783 41.1668 56.41 41.1668 56.0416C41.1668 55.305 41.4501 54.5683 41.9884 54.03C42.2718 53.775 42.5551 53.5766 42.9234 53.435C43.9718 52.9816 45.2184 53.2366 46.0118 54.03C46.2668 54.3133 46.4651 54.5966 46.6068 54.965C46.7484 55.305 46.8334 55.6733 46.8334 56.0416C46.8334 56.41 46.7484 56.7783 46.6068 57.1183Z" fill="#E6A71F"/>
</svg>
